<svg width="87" height="87" viewBox="0 0 87 87" fill="none" xmlns="http://www.w3.org/2000/svg">
<g clip-path="url(#clip0_224_9)">
<path d="M15.8724 25.1936C19.255 20.0756 23.9743 16.0083 29.4923 13.416L32.9287 22.8575C29.4146 24.6781 26.4061 27.3722 24.2057 30.7014C21.4505 34.8701 20.1079 39.814 20.3761 44.8037C20.6443 49.7935 22.5089 54.5649 25.695 58.4142C28.8811 62.2637 33.2201 64.9875 38.0718 66.1834C42.9235 67.3793 48.0311 66.9843 52.6414 65.057C57.2515 63.1293 61.12 59.7711 63.6768 55.4777C66.233 51.1841 67.342 46.1827 66.8401 41.2112C66.4901 37.7432 65.3688 34.418 63.5813 31.4694L69.1897 22.2099L69.1657 22.1604C73.4487 27.2686 76.1069 33.5544 76.7788 40.2076C77.4958 47.31 75.9116 54.4548 72.2594 60.5884C68.6071 66.7216 63.0806 71.519 56.4945 74.2726C49.9086 77.0262 42.612 77.5905 35.6809 75.8819C28.75 74.1736 22.5515 70.2827 17.9999 64.7835C13.4483 59.2843 10.7845 52.468 10.4015 45.3398C10.0184 38.2115 11.9363 31.1489 15.8724 25.1936Z" fill="#FCCA00"/>
<path d="M59.5371 14.2913L59.6005 14.3624L57.3652 24.7057C54.399 22.5518 50.9523 21.115 47.3184 20.5326L54.2883 39.6822C56.4267 45.5575 53.3975 52.054 47.5222 54.1924C41.6469 56.3309 35.1504 53.3015 33.012 47.4262C30.8736 41.5509 33.9029 35.0544 39.7782 32.916C41.9801 32.1145 44.2693 32.039 46.3836 32.567L38.4122 10.6657C45.8024 9.48028 53.2112 10.86 59.5371 14.2913Z" fill="#FC3F1D"/>
</g>
<defs>
<clipPath id="clip0_224_9">
<rect width="67" height="67" fill="white" transform="translate(0.5625 23.478) rotate(-20)"/>
</clipPath>
</defs>
</svg>
